<?xml version="1.0" standalone="no"?>
<!DOCTYPE svg PUBLIC "-//W3C//DTD SVG 20010904//EN"
 "http://www.w3.org/TR/2001/REC-SVG-20010904/DTD/svg10.dtd">
<svg version="1.0" xmlns="http://www.w3.org/2000/svg"
 width="300.000000pt" height="300.000000pt" viewBox="0 0 300.000000 300.000000"
 preserveAspectRatio="xMidYMid meet">

<g transform="translate(0.000000,300.000000) scale(0.100000,-0.100000)"
fill="#000000" stroke="none">
<path d="M47 2941 c-16 -33 -33 -63 -38 -66 -5 -4 -9 -514 -9 -1306 0 -1037 3
-1299 12 -1293 10 6 10 4 0 -7 -19 -20 -14 -30 12 -23 19 4 29 -1 51 -31 l28
-36 -22 -30 c-48 -65 -81 -117 -81 -130 0 -7 18 14 41 47 23 32 50 69 61 81
l21 22 76 -67 c43 -38 76 -74 75 -84 0 -13 3 -15 13 -7 9 9 17 8 28 -1 9 -7
19 -10 23 -6 4 4 0 11 -8 16 -8 5 -24 16 -35 25 -20 16 -20 16 2 6 34 -17 38
-13 9 10 -15 12 -25 23 -22 26 2 3 -11 18 -30 35 -19 16 -32 34 -29 38 3 5 1
11 -4 14 -11 7 -9 -13 4 -34 8 -13 7 -13 -8 -1 -9 7 -17 18 -17 24 0 6 -13 38
-29 71 -71 151 -77 176 -56 235 8 24 15 54 15 66 0 12 7 28 15 35 9 7 13 21 9
35 -3 13 0 26 6 30 7 4 9 18 5 35 -4 17 -2 31 5 35 9 5 10 0 6 -16 l-7 -24 14
24 15 24 12 -23 c7 -13 17 -29 21 -34 5 -6 26 -36 46 -66 40 -60 50 -72 203
-246 58 -65 137 -159 175 -208 39 -49 81 -101 94 -115 l23 -26 -16 25 c-36 57
-36 57 -14 76 21 19 21 19 9 -4 -12 -22 -11 -23 8 -12 16 8 21 8 21 -2 0 -8
29 -21 68 -32 37 -11 79 -25 93 -32 32 -16 424 -20 414 -4 -3 6 4 10 17 10 30
0 45 10 50 35 3 14 7 10 12 -17 l8 -38 159 0 c88 0 159 2 159 5 0 8 -131 257
-143 273 -5 6 -7 12 -3 12 14 0 106 -153 132 -220 l27 -70 44 0 c23 0 43 3 43
8 0 6 -36 56 -78 107 -119 147 -156 190 -167 187 -7 -1 -27 22 -43 51 -17 30
-37 60 -44 68 -24 24 -188 229 -188 234 0 5 34 -12 70 -35 193 -122 260 -149
292 -116 9 9 19 16 22 16 7 0 67 -94 118 -185 48 -86 109 -224 129 -292 11
-40 29 -58 29 -31 0 9 3 9 12 0 16 -16 148 -16 148 -1 0 8 5 7 15 -1 27 -23
29 -1 3 28 -14 15 -28 34 -31 42 -4 10 -6 11 -6 2 -1 -7 3 -21 8 -31 15 -27 0
-39 -29 -24 -25 12 -25 13 -2 13 26 0 26 0 7 36 -8 16 -15 25 -15 19 0 -5 -7
1 -16 13 -8 12 -19 20 -23 17 -10 -6 -66 125 -63 146 2 9 -4 22 -13 29 -8 7
-12 16 -10 21 8 11 231 -154 332 -247 l82 -74 252 0 c221 0 255 2 271 17 17
15 18 15 18 0 0 -12 9 -17 30 -17 l30 0 -2 105 c-1 58 -5 105 -10 105 -4 0 -8
-4 -8 -8 0 -15 -76 -32 -144 -32 -37 0 -87 -5 -112 -11 -58 -15 -161 10 -193
47 -12 13 -21 25 -21 27 0 1 15 10 33 20 17 10 45 36 62 58 18 24 36 38 45 36
8 -3 38 -10 65 -17 28 -7 59 -17 70 -23 11 -6 64 -13 118 -15 l97 -4 0 235 0
235 -47 30 c-27 17 -64 41 -83 54 -73 51 -240 158 -246 158 -3 0 -12 6 -19 13
-8 6 -36 28 -62 47 -26 19 -71 59 -99 88 -29 28 -55 52 -59 52 -4 0 -4 -15 -1
-32 5 -29 5 -30 -4 -9 -6 13 -8 31 -5 41 3 10 -9 32 -30 56 -19 21 -33 45 -30
52 3 7 1 11 -4 8 -5 -3 -12 2 -15 12 -3 9 -13 28 -20 41 l-14 23 -7 -22 c-4
-12 -4 -24 -1 -27 3 -4 6 0 6 7 0 9 5 7 14 -6 10 -13 11 -23 4 -31 -6 -8 -5
-19 2 -34 9 -17 14 -19 20 -8 7 10 12 6 21 -14 6 -14 16 -24 22 -20 6 3 8 -11
5 -36 -2 -27 0 -41 9 -41 13 0 28 -38 19 -48 -4 -3 -9 4 -13 16 -3 12 -9 22
-14 22 -12 0 -11 -17 1 -25 6 -3 10 -15 10 -26 0 -28 18 -24 26 6 7 29 16 31
39 9 19 -20 12 -32 -10 -14 -12 10 -16 8 -25 -15 -6 -15 -15 -23 -21 -19 -16
9 -41 73 -34 84 4 6 1 10 -4 10 -6 0 -11 5 -11 11 0 6 -14 39 -31 73 -17 33
-40 83 -50 109 l-19 48 27 77 c27 79 41 105 53 100 19 -8 109 -140 104 -153
-4 -9 3 -19 20 -26 14 -7 26 -20 26 -31 0 -20 16 -24 23 -5 4 9 6 9 6 -1 1 -7
5 -11 10 -8 5 3 68 -52 141 -122 73 -70 154 -147 181 -170 33 -31 46 -49 41
-60 -4 -14 -3 -15 9 -6 11 9 20 3 44 -25 18 -21 22 -30 10 -21 -11 7 -26 21
-32 29 -7 8 -13 11 -13 5 0 -5 29 -40 65 -79 41 -44 65 -64 65 -53 0 9 -8 22
-17 28 -17 11 -17 11 0 6 16 -5 17 7 17 148 l0 154 -27 18 c-16 9 -35 26 -44
36 -9 10 -20 18 -24 18 -4 0 -20 11 -37 25 -16 14 -26 25 -22 25 5 0 -3 8 -16
17 -29 21 -63 48 -101 83 -101 93 -173 155 -180 158 -5 2 -9 -1 -9 -8 0 -6 -5
-8 -10 -5 -8 5 -7 12 2 23 11 14 10 15 -12 9 -14 -4 -29 -7 -33 -7 -5 0 14
-22 42 -49 43 -42 48 -51 36 -61 -12 -10 -15 -9 -15 4 0 9 -6 16 -13 16 -7 0
-24 11 -39 25 -15 14 -30 21 -33 15 -3 -6 -12 -10 -18 -9 -9 0 -9 2 1 6 15 6
16 23 1 23 -6 0 -23 9 -38 19 l-27 20 2 -30 2 -29 -31 22 c-18 12 -35 26 -39
32 -9 14 2 36 19 36 8 0 12 4 9 9 -3 5 4 31 16 57 11 27 21 61 20 76 -1 34
-13 40 154 -80 71 -51 203 -142 294 -202 l165 -110 3 812 c1 446 1 813 -1 815
-2 2 -149 2 -325 1 l-322 -3 35 -35 c19 -19 61 -57 94 -85 61 -52 81 -86 81
-139 0 -22 3 -27 9 -17 7 11 13 8 26 -13 16 -24 16 -36 6 -117 -14 -109 -43
-189 -115 -317 -36 -64 -65 -134 -86 -205 l-31 -108 22 -18 22 -17 -22 -65
c-33 -99 -27 -97 -123 -51 -105 49 -213 121 -298 199 -72 67 -72 63 -15 153
l26 42 87 -84 c91 -88 171 -142 261 -178 83 -32 83 -18 0 18 -97 43 -169 92
-253 173 l-71 67 24 51 c18 37 27 48 36 41 7 -6 -10 65 -37 157 -27 93 -62
219 -79 281 -26 102 -52 172 -64 172 -6 0 40 -164 88 -310 69 -215 83 -276 67
-295 -12 -15 -16 -11 -37 35 -13 29 -23 68 -23 87 0 19 -4 32 -9 29 -5 -3 -11
7 -14 22 -2 15 -16 65 -30 112 -14 47 -31 113 -38 147 -13 61 -30 81 -21 25 2
-16 -1 -33 -7 -37 -8 -5 -10 1 -5 21 5 19 4 25 -5 20 -6 -4 -11 -4 -10 1 1 4
-2 22 -6 40 -5 21 -12 30 -21 26 -7 -3 -13 -8 -12 -11 0 -4 -1 -18 -2 -32 -2
-18 -5 -13 -12 19 -7 30 -6 47 1 54 15 15 13 58 -4 80 -7 11 -12 24 -9 30 6
18 -12 41 -25 32 -14 -8 -10 -59 13 -160 9 -38 25 -113 36 -166 18 -87 57
-229 63 -229 2 0 3 20 3 45 0 27 -4 40 -9 32 -5 -7 -5 1 -1 18 4 17 8 40 8 53
1 13 6 20 14 17 15 -6 15 -6 -2 43 -8 23 -11 44 -7 46 11 7 34 -101 25 -115
-5 -8 -3 -9 6 -4 10 6 12 4 7 -9 -4 -9 -3 -15 2 -12 9 6 36 -83 28 -91 -2 -2
-17 22 -32 54 -16 31 -30 52 -32 46 -2 -6 23 -65 55 -130 33 -65 66 -134 73
-155 12 -35 12 -37 -24 -71 -20 -19 -37 -40 -37 -46 0 -21 -18 -2 -25 26 -3
16 -18 51 -32 78 -22 43 -63 149 -63 163 0 2 7 2 15 -2 13 -5 13 -1 0 31 -9
21 -20 40 -26 44 -6 3 -10 9 -9 13 2 14 -13 84 -32 140 -10 32 -17 63 -15 70
2 6 -4 29 -14 52 -24 56 -32 129 -18 152 9 14 9 24 1 38 -11 18 -11 18 -12 -3
0 -12 -5 -25 -11 -29 -9 -5 -10 4 -6 32 9 54 -7 7 -22 -67 -21 -101 -81 -163
-285 -297 -43 -29 -86 -52 -95 -52 -74 1 -353 99 -453 160 -61 37 -62 38 -85
111 -12 41 -22 92 -22 114 1 22 3 32 6 22 2 -9 9 -14 15 -11 7 4 8 2 4 -5 -4
-6 10 -29 34 -54 40 -41 41 -41 18 -7 -13 20 -31 53 -41 75 -14 31 -24 40 -45
42 -15 1 -33 -3 -39 -9 -7 -6 -13 -7 -13 -2 0 5 -134 10 -298 12 l-297 3 -28
-60z m1770 -223 c-3 -8 -6 -5 -6 6 -1 11 2 17 5 13 3 -3 4 -12 1 -19z m-787
-111 c89 -35 158 -54 223 -62 l56 -7 -2 -57 c-1 -61 18 -145 38 -161 7 -6 4
13 -8 48 -30 90 -12 209 34 212 3 0 18 -27 34 -60 16 -33 32 -60 37 -60 5 0 1
15 -7 33 -28 56 11 2 57 -81 l40 -73 -12 -66 c-23 -136 -66 -165 -64 -45 1 40
-3 72 -7 72 -5 0 -9 10 -9 23 0 53 -72 249 -86 234 -2 -2 9 -37 25 -78 30 -77
45 -143 56 -244 l6 -60 -48 54 c-26 30 -52 60 -56 68 -4 7 -14 13 -21 13 -7 0
1 -15 19 -34 50 -53 104 -125 74 -100 -36 31 -109 78 -114 72 -2 -2 4 -52 14
-111 10 -59 16 -109 13 -112 -3 -3 -12 -5 -21 -5 -13 0 -13 2 -2 9 18 12 6 61
-15 61 -20 0 -29 -27 -14 -45 10 -12 9 -15 -5 -15 -40 0 -300 273 -349 367
-42 82 -40 85 27 39 34 -24 80 -53 102 -64 50 -25 170 -62 199 -61 11 0 -9 9
-46 19 -125 36 -209 81 -287 153 -33 31 -41 47 -56 114 -10 42 -20 84 -23 91
-3 8 24 -1 64 -21 38 -19 98 -46 134 -60z m-218 61 c-7 -7 -12 -8 -12 -2 0 14
12 26 19 19 2 -3 -1 -11 -7 -17z m16 -43 c-3 -3 -9 2 -12 12 -6 14 -5 15 5 6
7 -7 10 -15 7 -18z m1019 -67 c-3 -8 -6 -5 -6 6 -1 11 2 17 5 13 3 -3 4 -12 1
-19z m-147 -248 c32 -32 21 -130 -16 -144 -10 -4 -12 2 -7 24 8 40 -2 73 -33
109 l-26 31 31 0 c18 0 40 -9 51 -20z m-91 -153 c22 -70 31 -119 35 -207 l6
-115 -19 53 c-11 29 -29 65 -40 81 -13 17 -21 45 -21 68 0 28 -9 51 -31 81
l-31 42 20 27 c11 16 23 38 26 51 11 35 23 18 55 -81z m-721 10 c22 -34 93
-121 157 -192 128 -143 189 -224 227 -300 29 -56 63 -186 55 -207 -3 -7 -6 -2
-6 12 -1 14 -10 43 -21 65 -22 44 -23 48 5 -85 8 -35 12 -66 10 -69 -3 -2 -15
5 -28 16 -12 11 -36 28 -53 36 -17 9 -38 27 -47 40 -9 13 -22 30 -29 38 -7 8
-22 34 -33 59 -17 41 -75 136 -100 167 -5 7 -22 29 -38 50 -15 21 -46 62 -68
92 -24 31 -42 65 -42 80 0 14 -2 20 -4 13 -3 -6 -9 -9 -14 -6 -6 3 -5 12 3 22
11 13 11 15 -3 10 -11 -4 -15 0 -14 15 1 12 -7 35 -18 50 -25 37 -18 43 16 11
21 -19 31 -23 45 -15 10 7 12 11 4 11 -7 0 -10 5 -7 10 4 6 -5 20 -19 31 -14
11 -26 30 -26 42 0 18 2 19 10 7 8 -12 10 -11 10 7 0 12 -4 25 -10 28 -5 3
-10 1 -10 -6 0 -7 -2 -10 -5 -7 -5 4 4 38 9 38 1 0 21 -28 44 -63z m-70 7 c-3
-14 -5 -12 -10 9 -3 19 -2 25 4 19 6 -6 8 -18 6 -28z m564 -64 c21 0 28 -5 28
-20 0 -24 18 -67 42 -99 18 -23 62 -151 55 -158 -8 -8 -176 123 -172 134 2 7
1 12 -3 12 -20 -3 -32 2 -27 12 4 6 14 8 22 4 14 -5 15 4 10 66 -5 55 -3 69 5
61 7 -7 25 -12 40 -12z m-204 -236 c-6 -5 -130 197 -135 219 -3 12 27 -32 66
-97 39 -65 70 -120 69 -122z m112 191 c0 -8 -4 -15 -10 -15 -5 0 -10 7 -10 15
0 8 5 15 10 15 6 0 10 -7 10 -15z m-359 -227 c9 -4 23 -20 30 -37 8 -17 16
-31 20 -31 3 0 16 -14 29 -32 17 -23 19 -30 7 -25 -11 4 -14 2 -11 -8 3 -8 11
-12 18 -9 15 6 60 -72 50 -88 -4 -7 -4 -10 1 -6 9 8 38 -19 41 -39 2 -12 -28
9 -98 69 -32 28 -64 88 -47 88 7 0 10 3 7 6 -4 3 -10 5 -14 4 -4 -1 -17 18
-29 42 -24 47 -42 101 -28 82 4 -6 15 -13 24 -16z m502 -370 c71 -115 80 -138
67 -173 l-11 -30 -17 23 c-10 12 -23 53 -30 90 -7 37 -24 88 -38 115 -36 69
-22 57 29 -25z m997 -53 c11 -13 10 -14 -4 -9 -9 3 -16 10 -16 15 0 13 6 11
20 -6z m-130 -121 c0 -8 -4 -12 -10 -9 -5 3 -10 10 -10 16 0 5 5 9 10 9 6 0
10 -7 10 -16z m-2261 -181 c-1 -79 -3 -90 -10 -58 -11 57 -11 155 1 155 6 0
10 -38 9 -97z m2360 -107 c-2 -20 -2 -20 -6 2 -2 12 -9 20 -14 17 -5 -4 -9 1
-9 11 0 13 3 14 15 4 8 -7 14 -22 14 -34z m65 -12 c3 -8 2 -12 -4 -9 -6 3 -10
10 -10 16 0 14 7 11 14 -7z m-29 -14 c-3 -5 -1 -10 6 -10 7 0 10 -2 7 -5 -3
-3 -13 -2 -22 1 -14 5 -15 9 -4 15 17 11 20 11 13 -1z m71 -42 l29 -33 -32 29
c-31 28 -38 36 -30 36 2 0 16 -15 33 -32z m-7 -32 c37 -40 15 -31 -26 10 -20
20 -27 32 -17 26 10 -6 30 -22 43 -36z m296 -155 c3 -5 2 -12 -3 -15 -5 -3 -9
1 -9 9 0 17 3 19 12 6z m-2429 -119 c-17 -16 -18 -16 -5 5 7 12 15 20 18 17 3
-2 -3 -12 -13 -22z m43 -2 c-6 -16 -9 -52 -7 -79 1 -27 0 -47 -4 -45 -3 2 -9
-2 -12 -8 -3 -7 -3 -2 0 11 4 17 3 21 -6 16 -9 -6 -9 -3 -1 13 9 16 7 21 -8
25 -11 2 -25 0 -32 -7 -10 -9 -11 -8 -3 4 19 27 77 100 80 100 2 0 -2 -13 -7
-30z m2208 -204 c22 -47 11 -82 -43 -133 -49 -48 -134 -79 -184 -68 -16 4 -41
21 -55 38 l-24 32 57 11 c31 5 73 18 92 28 42 22 120 95 120 113 0 25 20 13
37 -21z m241 -81 c-3 -3 -9 2 -12 12 -6 14 -5 15 5 6 7 -7 10 -15 7 -18z
m-341 -149 l21 -24 -25 -6 c-16 -5 -40 1 -70 16 l-46 23 39 6 c21 3 44 7 50 8
6 0 20 -10 31 -23z m-1809 -61 c-1 -34 2 -38 19 -24 15 13 15 12 3 -10 -11
-22 -13 -23 -22 -7 -6 10 -11 25 -13 34 -1 10 -7 16 -13 15 -6 -1 -22 14 -37
33 l-27 35 45 -33 c25 -18 45 -37 45 -43z m-523 25 c-6 -10 44 -52 54 -46 3 2
12 -2 19 -10 7 -8 9 -14 5 -14 -4 0 -1 -4 7 -10 8 -5 12 -12 8 -15 -6 -6 -27
10 -95 73 -13 12 -19 22 -12 22 8 0 7 5 -2 18 -13 15 -12 16 3 3 10 -7 16 -17
13 -21z m2725 -4 c0 -3 -4 -8 -10 -11 -5 -3 -10 -1 -10 4 0 6 5 11 10 11 6 0
10 -2 10 -4z m-822 -71 c-3 -3 -9 2 -12 12 -6 14 -5 15 5 6 7 -7 10 -15 7 -18z
m-1285 0 c-3 -9 -8 -14 -10 -11 -3 3 -2 9 2 15 9 16 15 13 8 -4z m1548 -2 c13
-16 12 -17 -3 -4 -17 13 -22 21 -14 21 2 0 10 -8 17 -17z m574 -41 c-7 -7 -25
17 -25 33 0 6 5 3 10 -5 8 -12 10 -10 11 10 2 23 2 23 6 -3 3 -16 2 -32 -2
-35z m-2100 38 c-3 -5 2 -10 11 -10 10 0 15 -3 11 -6 -10 -10 -39 5 -32 16 3
5 8 10 11 10 3 0 2 -4 -1 -10z m1558 -15 c-7 -21 -12 -19 -10 4 0 11 5 18 9
15 4 -3 5 -11 1 -19z"/>
<path d="M935 1810 c10 -11 20 -20 23 -20 3 0 -3 9 -13 20 -10 11 -20 20 -23
20 -3 0 3 -9 13 -20z"/>
<path d="M981 1705 c0 -5 6 -19 14 -29 8 -11 15 -15 15 -10 0 6 -7 19 -15 30
-8 10 -14 15 -14 9z"/>
<path d="M1021 1659 c-1 -9 8 -24 19 -34 11 -10 20 -13 20 -7 0 7 -4 12 -8 12
-5 0 -14 10 -20 23 -7 15 -11 17 -11 6z"/>
<path d="M864 2976 c-7 -16 -4 -26 14 -43 13 -13 32 -23 44 -23 25 0 83 42 99
71 10 19 8 20 -69 18 -69 -2 -80 -4 -88 -23z m120 -18 c-9 -14 -74 -20 -88 -9
-7 6 -17 7 -21 3 -5 -4 -6 -2 -3 3 4 6 31 10 61 10 30 0 53 -3 51 -7z"/>
<path d="M1813 2974 c0 -18 2 -22 8 -13 5 9 9 10 9 3 0 -7 7 -14 15 -18 12 -4
13 -2 6 13 -6 10 -16 23 -24 30 -12 9 -14 7 -14 -15z"/>
<path d="M1960 2992 c0 -15 94 -92 112 -92 4 0 5 6 2 13 -2 7 3 21 11 32 16
19 16 19 11 -5 -5 -22 -4 -21 9 5 25 52 22 55 -65 55 -44 0 -80 -4 -80 -8z"/>
<path d="M2296 2965 c8 -50 14 -58 14 -19 0 16 -5 36 -11 44 -7 11 -8 4 -3
-25z"/>
<path d="M11 2943 c-1 -6 -4 -20 -7 -30 -5 -17 -5 -17 6 0 6 10 9 23 6 30 -3
9 -5 9 -5 0z"/>
<path d="M1812 2880 c0 -14 2 -19 5 -12 2 6 2 18 0 25 -3 6 -5 1 -5 -13z"/>
<path d="M1851 2804 c0 -11 3 -14 6 -6 3 7 2 16 -1 19 -3 4 -6 -2 -5 -13z"/>
<path d="M1198 2703 c7 -3 16 -2 19 1 4 3 -2 6 -13 5 -11 0 -14 -3 -6 -6z"/>
<path d="M1870 2406 c0 -8 4 -17 9 -21 5 -3 12 -19 16 -35 8 -37 23 -48 21
-16 0 13 -5 22 -10 18 -5 -3 -7 2 -3 11 3 10 2 17 -3 17 -6 0 -10 9 -10 20 0
11 -4 20 -10 20 -5 0 -10 -6 -10 -14z"/>
<path d="M2420 1651 c0 -6 4 -13 10 -16 6 -3 7 1 4 9 -7 18 -14 21 -14 7z"/>
<path d="M2466 1629 c-16 -16 -17 -19 -4 -19 9 0 19 7 22 16 9 24 4 24 -18 3z"/>
<path d="M2490 1610 c0 -5 5 -10 10 -10 6 0 10 5 10 10 0 6 -4 10 -10 10 -5 0
-10 -4 -10 -10z"/>
<path d="M2311 1225 c0 -18 28 -61 29 -44 0 8 -7 24 -15 35 -8 10 -14 15 -14
9z"/>
<path d="M2825 1020 c3 -5 11 -10 16 -10 6 0 7 5 4 10 -3 6 -11 10 -16 10 -6
0 -7 -4 -4 -10z"/>
<path d="M2885 229 c55 -11 85 -11 85 1 0 6 -27 10 -62 9 -60 -1 -61 -2 -23
-10z"/>
</g>
</svg>
